<mxfile host="app.diagrams.net" modified="2024-03-10T14:31:21.953Z" agent="Mozilla/5.0 (Macintosh; Intel Mac OS X 10_15_7) AppleWebKit/605.1.15 (KHTML, like Gecko) Version/16.6.1 Safari/605.1.15" etag="pxnhhu_Y211258yhBpFE" version="24.0.2" type="github">
  <diagram id="07fea595-8f29-1299-0266-81d95cde20df" name="Page-1">
    <mxGraphModel dx="1735" dy="-478" grid="0" gridSize="10" guides="1" tooltips="1" connect="1" arrows="1" fold="1" page="1" pageScale="1" pageWidth="1169" pageHeight="827" background="none" math="0" shadow="0">
      <root>
        <mxCell id="0" />
        <mxCell id="1" parent="0" />
        <mxCell id="645" value="" style="triangle;whiteSpace=wrap;html=1;shadow=0;labelBackgroundColor=none;strokeColor=none;fillColor=#FFFFFF;fontFamily=Helvetica;fontSize=17;fontColor=#23445d;align=center;rotation=90;gradientColor=none;flipV=1;flipH=1;opacity=20;" parent="1" vertex="1">
          <mxGeometry x="289" y="2786.6666666666665" width="72" height="152" as="geometry" />
        </mxCell>
        <mxCell id="651" value="DISPLAY&lt;div&gt;FEEDBACK&lt;/div&gt;" style="shape=hexagon;perimeter=hexagonPerimeter2;whiteSpace=wrap;html=1;shadow=0;labelBackgroundColor=none;strokeColor=#6c8ebf;fillColor=#dae8fc;fontFamily=Helvetica;fontSize=23;align=center;strokeWidth=3;" parent="1" vertex="1">
          <mxGeometry x="174.0000000000001" y="2638.1995614035086" width="311.84210526315786" height="259.86842105263156" as="geometry" />
        </mxCell>
        <mxCell id="650" value="SAVE DATA" style="shape=hexagon;perimeter=hexagonPerimeter2;whiteSpace=wrap;html=1;shadow=0;labelBackgroundColor=none;strokeColor=#d79b00;fillColor=#ffe6cc;fontFamily=Helvetica;fontSize=23;align=center;strokeWidth=3;" parent="1" vertex="1">
          <mxGeometry x="174" y="2898.2653508771928" width="311.84210526315786" height="259.86842105263156" as="geometry" />
        </mxCell>
        <mxCell id="649" value="&lt;font style=&quot;font-size: 23px&quot;&gt;CALCULATE AND&lt;/font&gt;&lt;div&gt;ADD LATENCY&lt;/div&gt;" style="shape=hexagon;perimeter=hexagonPerimeter2;whiteSpace=wrap;html=1;shadow=0;labelBackgroundColor=none;strokeColor=#82b366;fillColor=#d5e8d4;fontFamily=Helvetica;fontSize=23;align=center;strokeWidth=3;" parent="1" vertex="1">
          <mxGeometry x="408.07894736842115" y="3028.7982456140344" width="311.84210526315786" height="259.86842105263156" as="geometry" />
        </mxCell>
        <mxCell id="648" value="&lt;font style=&quot;font-size: 23px&quot;&gt;CALCULATE&lt;/font&gt;&lt;div&gt;STREAMS&lt;br&gt;&lt;div&gt;&lt;font style=&quot;font-size: 23px&quot;&gt;SYNCHRONY&lt;/font&gt;&lt;/div&gt;&lt;/div&gt;" style="shape=hexagon;perimeter=hexagonPerimeter2;whiteSpace=wrap;html=1;shadow=0;labelBackgroundColor=none;strokeColor=#9673a6;fillColor=#e1d5e7;fontFamily=Helvetica;fontSize=23;align=center;strokeWidth=3;" parent="1" vertex="1">
          <mxGeometry x="642.1578947368422" y="2898.2653508771928" width="311.84210526315786" height="259.86842105263156" as="geometry" />
        </mxCell>
        <mxCell id="647" value="&lt;div&gt;&lt;font style=&quot;font-size: 23px&quot;&gt;APPEND LAST&lt;/font&gt;&lt;/div&gt;&lt;div&gt;&lt;font style=&quot;font-size: 23px&quot;&gt;MOVEMENT&lt;/font&gt;&lt;/div&gt;&lt;div&gt;&lt;font style=&quot;font-size: 23px&quot;&gt;TO STREAM&lt;/font&gt;&lt;/div&gt;" style="shape=hexagon;perimeter=hexagonPerimeter2;whiteSpace=wrap;html=1;shadow=0;labelBackgroundColor=none;strokeColor=#b85450;fillColor=#f8cecc;fontFamily=Helvetica;fontSize=23;align=center;strokeWidth=3;" parent="1" vertex="1">
          <mxGeometry x="642.1578947368422" y="2638.1995614035086" width="311.84210526315786" height="259.86842105263156" as="geometry" />
        </mxCell>
        <mxCell id="646" value="&lt;div&gt;PERFORM&lt;/div&gt;&lt;div&gt;MOVEMENTS&lt;/div&gt;" style="shape=hexagon;perimeter=hexagonPerimeter2;whiteSpace=wrap;html=1;shadow=0;labelBackgroundColor=none;strokeColor=#d6b656;fillColor=#fff2cc;fontFamily=Helvetica;fontSize=23;align=center;strokeWidth=3;" parent="1" vertex="1">
          <mxGeometry x="408.07894736842115" y="2508.6666666666665" width="311.84210526315786" height="259.86842105263156" as="geometry" />
        </mxCell>
        <mxCell id="652" value="" style="triangle;whiteSpace=wrap;html=1;shadow=0;labelBackgroundColor=none;strokeColor=#d6b656;fillColor=#fff2cc;fontFamily=Helvetica;fontSize=17;align=center;rotation=31;strokeWidth=3;" parent="1" vertex="1">
          <mxGeometry x="680.5" y="2672.6666666666665" width="35" height="73" as="geometry" />
        </mxCell>
        <mxCell id="653" value="" style="triangle;whiteSpace=wrap;html=1;shadow=0;labelBackgroundColor=none;strokeColor=#82b366;fillColor=#d5e8d4;fontFamily=Helvetica;fontSize=17;align=center;rotation=31;flipH=1;strokeWidth=3;" parent="1" vertex="1">
          <mxGeometry x="414" y="3048.666666666666" width="35" height="73" as="geometry" />
        </mxCell>
        <mxCell id="654" value="" style="triangle;whiteSpace=wrap;html=1;shadow=0;labelBackgroundColor=none;strokeColor=#6c8ebf;fillColor=#dae8fc;fontFamily=Helvetica;fontSize=17;align=center;rotation=329;strokeWidth=3;" parent="1" vertex="1">
          <mxGeometry x="444" y="2657.6666666666665" width="35" height="73" as="geometry" />
        </mxCell>
        <mxCell id="655" value="" style="triangle;whiteSpace=wrap;html=1;shadow=0;labelBackgroundColor=none;strokeColor=#9673a6;fillColor=#e1d5e7;fontFamily=Helvetica;fontSize=17;align=center;rotation=329;flipH=1;strokeWidth=3;" parent="1" vertex="1">
          <mxGeometry x="647" y="3063.666666666666" width="35" height="73" as="geometry" />
        </mxCell>
        <mxCell id="656" value="" style="triangle;whiteSpace=wrap;html=1;shadow=0;labelBackgroundColor=none;strokeColor=#b85450;fillColor=#f8cecc;fontFamily=Helvetica;fontSize=17;align=center;rotation=90;strokeWidth=3;rounded=0;" parent="1" vertex="1">
          <mxGeometry x="780.578947368421" y="2879.1666666666665" width="35" height="73" as="geometry" />
        </mxCell>
        <mxCell id="657" value="" style="triangle;whiteSpace=wrap;html=1;shadow=0;labelBackgroundColor=none;strokeColor=#d79b00;fillColor=#ffe6cc;fontFamily=Helvetica;fontSize=17;align=center;rotation=90;flipH=1;strokeWidth=3;" parent="1" vertex="1">
          <mxGeometry x="312.42105263157896" y="2844.1666666666665" width="35" height="73" as="geometry" />
        </mxCell>
        <mxCell id="myYGT20P6q7VTdsPT08v-661" value="&lt;font style=&quot;font-size: 27px;&quot;&gt;&lt;b&gt;S&lt;/b&gt;&lt;/font&gt;" style="ellipse;html=1;shape=startState;fillColor=default;strokeColor=default;strokeWidth=3;" parent="1" vertex="1">
          <mxGeometry x="457" y="2489" width="60" height="60" as="geometry" />
        </mxCell>
        <mxCell id="myYGT20P6q7VTdsPT08v-662" value="&lt;div style=&quot;caret-color: rgb(35, 68, 93); color: rgb(35, 68, 93); font-family: Helvetica; font-size: 23px; font-style: normal; font-variant-caps: normal; font-weight: 400; letter-spacing: normal; orphans: auto; text-align: center; text-indent: 0px; text-transform: none; white-space: normal; widows: auto; word-spacing: 0px; -webkit-text-stroke-width: 0px; text-decoration: none;&quot;&gt;START&lt;/div&gt;" style="text;whiteSpace=wrap;html=1;strokeColor=default;" parent="1" vertex="1">
          <mxGeometry x="808.5" y="2212" width="80" height="40" as="geometry" />
        </mxCell>
        <mxCell id="myYGT20P6q7VTdsPT08v-667" value="" style="shape=hexagon;perimeter=hexagonPerimeter2;whiteSpace=wrap;html=1;shadow=0;labelBackgroundColor=none;strokeColor=#6c8ebf;fillColor=none;fontFamily=Helvetica;fontSize=23;align=center;strokeWidth=3;" parent="1" vertex="1">
          <mxGeometry x="464.0000000000001" y="3503.999561403509" width="311.84210526315786" height="259.86842105263156" as="geometry" />
        </mxCell>
        <mxCell id="644" value="&lt;font color=&quot;#ffffff&quot;&gt;&lt;span style=&quot;caret-color: rgb(255, 255, 255); font-size: 30px;&quot;&gt;&lt;b&gt;SyncVR&lt;/b&gt;&lt;/span&gt;&lt;/font&gt;&lt;div&gt;&lt;font color=&quot;#ffffff&quot;&gt;&lt;span style=&quot;caret-color: rgb(255, 255, 255); font-size: 30px;&quot;&gt;&lt;b&gt;Lifecycle&lt;/b&gt;&lt;/span&gt;&lt;/font&gt;&lt;/div&gt;" style="shape=hexagon;perimeter=hexagonPerimeter2;whiteSpace=wrap;html=1;shadow=0;labelBackgroundColor=none;strokeColor=#23445D;fillColor=#23445D;gradientColor=none;fontFamily=Helvetica;fontSize=23;fontColor=#23445d;align=center;strokeWidth=3;" parent="1" vertex="1">
          <mxGeometry x="408.07894736842115" y="2768.7982456140344" width="311.84210526315786" height="259.86842105263156" as="geometry" />
        </mxCell>
      </root>
    </mxGraphModel>
  </diagram>
</mxfile>
